# xmcd
#
# Track frame offsets:
#	150
#	21084
#	46389
#	65466
#	96843
#	120154
#
# Disc length: 1814 seconds
#
# Revision: 1
# Processed by: cddbd v1.5.2PL0 Copyright (c) Steve Scherf et al.
# Submitted via: audiograbber 1.83.01
#
DISCID=43071406
DTITLE=Eight Dice Cloth - Eight Dice Cloth
DYEAR=1900
DGENRE=
TTITLE0=Cage's Lament
TTITLE1=I'll see you in my dreams
TTITLE2=Douce ambiance
TTITLE3=After you've gone
TTITLE4=Found a  new baby
TTITLE5=Problem Blues
EXTD=
EXTT0=
EXTT1=
EXTT2=
EXTT3=
EXTT4=
EXTT5=
PLAYORDER=
